<svg xmlns="http://www.w3.org/2000/svg"  viewBox="0 0 32 32" width="32px" height="32px" baseProfile="basic"><radialGradient id="Og3Me7tTLR25nhYunNa_Oa" cx="22.823" cy="8.261" r="15.134" gradientUnits="userSpaceOnUse"><stop offset="0" stop-color="#565656"/><stop offset=".014" stop-color="#5e5e5e"/><stop offset=".127" stop-color="#999"/><stop offset=".223" stop-color="#c4c4c4"/><stop offset=".298" stop-color="#dedede"/><stop offset=".342" stop-color="#e8e8e8"/><stop offset="1" stop-color="#f2f2f2"/></radialGradient><path fill="url(#Og3Me7tTLR25nhYunNa_Oa)" d="M25,27H7V5h11.172c0.53,0,1.039,0.211,1.414,0.586l4.828,4.828	C24.789,10.789,25,11.298,25,11.828V27z"/><linearGradient id="Og3Me7tTLR25nhYunNa_Ob" x1="16" x2="16" y1="5" y2="27" gradientUnits="userSpaceOnUse"><stop offset="0" stop-opacity=".05"/><stop offset="1" stop-opacity=".15"/></linearGradient><path fill="url(#Og3Me7tTLR25nhYunNa_Ob)" d="M24.414,10.414l-4.828-4.828	C19.211,5.211,18.702,5,18.172,5H7v22h18V11.828C25,11.298,24.789,10.789,24.414,10.414z M24.75,26.75H7.25V5.25h10.922	c0.467,0,0.907,0.182,1.237,0.513l4.828,4.828c0.331,0.331,0.513,0.77,0.513,1.237V26.75z"/><linearGradient id="Og3Me7tTLR25nhYunNa_Oc" x1="19.372" x2="22.364" y1="10.444" y2="7.452" gradientUnits="userSpaceOnUse"><stop offset="0" stop-color="#fff"/><stop offset=".311" stop-color="#fcfcfc"/><stop offset=".58" stop-color="#f1f1f1"/><stop offset=".833" stop-color="#dfdfdf"/><stop offset="1" stop-color="#cfcfcf"/></linearGradient><path fill="url(#Og3Me7tTLR25nhYunNa_Oc)" d="M17.56,5c0,0,1.44,0.201,1.44,1.49	C19,7.286,19,11,19,11s3.29,0,4.341,0c1.512,0,1.642,1.002,1.659,1.072v-0.244c0-0.681-0.292-1.039-0.357-1.136	c-0.068-0.098-0.143-0.193-0.228-0.278l-4.828-4.828C19.016,5.016,18.491,5,17.56,5z"/></svg>